# xmcd CD database file
#
# Track frame offsets:
#	150
#	8985
#	18216
#	42387
#	53835
#	65903
#	84992
#	92387
#	93509
#	102630
#	113408
#	117024
#	139208
#	147689
#	161339
#	178376
#	195411
#	205347
#	220675
#	226635
#	240757
#	241820
#	263526
#	281125
#	314374
#	339641
#
# Disc length: 4786 seconds
#
# Revision: 1
# Processed by: cddbd v1.5.2PL0 Copyright (c) Steve Scherf et al.
# Submitted via: CDex 1.70beta3
#
DISCID=6512b01a
DTITLE=Jazztronik - Lovetronica!! Disk2
DYEAR=2009
DGENRE=Jazz
TTITLE0=Roll Call
TTITLE1=Late Night Mission (Clean)
TTITLE2=nday Shoutin’ (Original)
TTITLE3=My Beat (Derrick Carter Remix)
TTITLE4=NARDA
TTITLE5=Come On
TTITLE6=Alice,You Need Him
TTITLE7=Always For The Break
TTITLE8=Block Party (DJ Tool)
TTITLE9=Kutwell (Original Mix)
TTITLE10=Every Now And Then (Kenny Dope Dub)
TTITLE11=Beau Mot Plage (Original Mix)
TTITLE12=Gizmode (Original Mix)
TTITLE13=Gedaroom feat.Capitol A and Phoebe One
TTITLE14=bubble dancing (Radio Slave Remix)
TTITLE15=Coro (Kaoz 6:23 Dark Mix)
TTITLE16=Jeimayai (Original Mix)
TTITLE17=Dub Africa (Freedom Song)
TTITLE18=I..C.U.
TTITLE19=Let Them Come
TTITLE20=Money For Love (K-Dope Broken Beats)
TTITLE21=Good Foot Charlie
TTITLE22=This Too Shall Pass (Daz-i-kue Mix)
TTITLE23=Wondrous (Original Extended)
TTITLE24=Plastico (Bugz In The Attic Remix)
TTITLE25=Streetlife (Sir Piers Full Length Main Mix)
EXTD=YEAR: 2009
EXTT0=
EXTT1=
EXTT2=
EXTT3=
EXTT4=
EXTT5=
EXTT6=
EXTT7=
EXTT8=
EXTT9=
EXTT10=
EXTT11=
EXTT12=
EXTT13=
EXTT14=
EXTT15=
EXTT16=
EXTT17=
EXTT18=
EXTT19=
EXTT20=
EXTT21=
EXTT22=
EXTT23=
EXTT24=
EXTT25=
PLAYORDER=
